<svg width="39" height="39" viewBox="0 0 39 39" fill="none" xmlns="http://www.w3.org/2000/svg">
<circle cx="19.5" cy="19.5" r="19.5" fill="#F0F5FA"/>
<g clip-path="url(#clip0_1_335)">
<path d="M13.4812 20.1019V15.2871H11.6757C11.1968 15.2871 10.7376 15.4773 10.399 15.8159C10.0603 16.1546 9.87012 16.6138 9.87012 17.0927V27.926C9.87101 28.0378 9.90302 28.1471 9.96255 28.2417C10.0221 28.3363 10.1068 28.4125 10.2072 28.4616C10.3039 28.5056 10.4105 28.5232 10.5162 28.5127C10.6219 28.5021 10.7229 28.4637 10.809 28.4015L13.9085 26.1204H21.9974C22.2255 26.1272 22.4526 26.087 22.6646 26.0024C22.8765 25.9179 23.0688 25.7907 23.2296 25.6288C23.3904 25.4668 23.5163 25.2736 23.5994 25.0611C23.6825 24.8485 23.721 24.6212 23.7127 24.3931V23.713H17.0923C16.1346 23.713 15.2161 23.3326 14.5389 22.6554C13.8617 21.9782 13.4812 21.0597 13.4812 20.1019Z" fill="#F6F6F6"/>
<path d="M26.7223 16.7913C26.0264 16.793 25.3396 16.6333 24.7159 16.3248C24.0921 16.0164 23.5484 15.5675 23.1273 15.0135C22.7062 14.4595 22.4194 13.8154 22.2892 13.1318C22.159 12.4482 22.189 11.7437 22.3769 11.0737H17.0927C16.6138 11.0737 16.1546 11.264 15.8159 11.6026C15.4773 11.9412 15.2871 12.4004 15.2871 12.8793V20.1015C15.2871 20.5804 15.4773 21.0396 15.8159 21.3782C16.1546 21.7168 16.6138 21.9071 17.0927 21.9071H25.2478L28.1246 24.1399C28.2101 24.2032 28.3109 24.2426 28.4166 24.2542C28.5223 24.2659 28.6292 24.2493 28.7265 24.2061C28.8289 24.1574 28.9154 24.0806 28.9761 23.9848C29.0368 23.889 29.0692 23.7779 29.0695 23.6645V16.1112C28.3652 16.5509 27.5526 16.7863 26.7223 16.7913Z" fill="#F6F6F6"/>
<path d="M26.7221 15.2871C28.3841 15.2871 29.7314 13.9398 29.7314 12.2778C29.7314 10.6158 28.3841 9.26855 26.7221 9.26855C25.0602 9.26855 23.7129 10.6158 23.7129 12.2778C23.7129 13.9398 25.0602 15.2871 26.7221 15.2871Z" fill="#F6F6F6"/>
</g>
<defs>
<clipPath id="clip0_1_335">
<rect width="21.6667" height="21.6667" fill="white" transform="translate(8.6665 8.6665)"/>
</clipPath>
</defs>
</svg>
